<!--?xml version="1.0" standalone="no"?-->
<svg xmlns="http://www.w3.org/2000/svg" version="1.2" baseProfile="tiny" width="480" height="360">
[<rect x="0" y="0" width="479" height="359" fill="rgb(40,42,59)" fill-opacity="1"></rect>,<ellipse cx="224" cy="248" rx="52" ry="33" fill="rgb(255,255,255)" fill-opacity="0.5019607843137255"></ellipse>,<ellipse cx="0" cy="251" rx="33" ry="50" fill="rgb(255,0,255)" fill-opacity="0.5019607843137255"></ellipse>,<circle cx="381" cy="19" r="134" fill="rgb(0,0,0)" fill-opacity="0.5019607843137255"></circle>,<g transform="translate(458 310) rotate(182) scale(32 59)"><ellipse cx="0" cy="0" rx="1" ry="1" fill="rgb(0,255,255)" fill-opacity="0.5019607843137255"></ellipse></g>,<polygon points="203 165 262 175 256 208 197 198" fill="rgb(255,255,255)" fill-opacity="0.5019607843137255"></polygon>,<ellipse cx="24" cy="296" rx="37" ry="31" fill="rgb(88,0,164)" fill-opacity="0.5019607843137255"></ellipse>,<circle cx="166" cy="125" r="49" fill="rgb(117,114,195)" fill-opacity="0.5019607843137255"></circle>,<circle cx="462" cy="290" r="31" fill="rgb(0,255,255)" fill-opacity="0.5019607843137255"></circle>,<circle cx="66" cy="50" r="83" fill="rgb(0,0,0)" fill-opacity="0.5019607843137255"></circle>,<g transform="translate(129 347) rotate(2) scale(84 42)"><ellipse cx="0" cy="0" rx="1" ry="1" fill="rgb(4,5,6)" fill-opacity="0.5019607843137255"></ellipse></g>,<ellipse cx="16" cy="242" rx="21" ry="27" fill="rgb(255,0,255)" fill-opacity="0.5019607843137255"></ellipse>,<ellipse cx="184" cy="35" rx="92" ry="30" fill="rgb(0,0,0)" fill-opacity="0.5019607843137255"></ellipse>,<g transform="translate(454 342) rotate(360) scale(31 25)"><ellipse cx="0" cy="0" rx="1" ry="1" fill="rgb(0,143,54)" fill-opacity="0.5019607843137255"></ellipse></g>,<polygon points="343 144 341 167 301 164 303 141" fill="rgb(255,255,255)" fill-opacity="0.5019607843137255"></polygon>,<circle cx="225" cy="248" r="25" fill="rgb(255,255,255)" fill-opacity="0.5019607843137255"></circle>,<g transform="translate(388 213) rotate(273) scale(39 52)"><ellipse cx="0" cy="0" rx="1" ry="1" fill="rgb(0,0,10)" fill-opacity="0.5019607843137255"></ellipse></g>,<ellipse cx="416" cy="95" rx="145" ry="58" fill="rgb(0,0,0)" fill-opacity="0.5019607843137255"></ellipse>,<g transform="translate(280 227) rotate(85) scale(82 28)"><ellipse cx="0" cy="0" rx="1" ry="1" fill="rgb(82,63,103)" fill-opacity="0.5019607843137255"></ellipse></g>,<g transform="translate(452 8) rotate(32) scale(25 29)"><ellipse cx="0" cy="0" rx="1" ry="1" fill="rgb(121,110,44)" fill-opacity="0.5019607843137255"></ellipse></g>,<g transform="translate(447 150) rotate(100) scale(24 40)"><ellipse cx="0" cy="0" rx="1" ry="1" fill="rgb(0,0,0)" fill-opacity="0.5019607843137255"></ellipse></g>,<g transform="translate(324 359) rotate(6) scale(104 44)"><ellipse cx="0" cy="0" rx="1" ry="1" fill="rgb(13,14,15)" fill-opacity="0.5019607843137255"></ellipse></g>,<g transform="translate(171 121) rotate(11) scale(39 16)"><ellipse cx="0" cy="0" rx="1" ry="1" fill="rgb(131,143,229)" fill-opacity="0.5019607843137255"></ellipse></g>,<polygon points="264 221 273 221 273 261 264 261" fill="rgb(47,227,123)" fill-opacity="0.5019607843137255"></polygon>,<rect x="170" y="141" width="23" height="146" fill="rgb(87,84,78)" fill-opacity="0.5019607843137255"></rect>,<circle cx="0" cy="113" r="31" fill="rgb(0,0,0)" fill-opacity="0.5019607843137255"></circle>,<circle cx="233" cy="111" r="23" fill="rgb(106,90,154)" fill-opacity="0.5019607843137255"></circle>,<circle cx="51" cy="256" r="21" fill="rgb(66,0,99)" fill-opacity="0.5019607843137255"></circle>,<polygon points="334 298 188 303 187 267 333 262" fill="rgb(79,75,116)" fill-opacity="0.5019607843137255"></polygon>,<g transform="translate(394 158) rotate(299) scale(18 22)"><ellipse cx="0" cy="0" rx="1" ry="1" fill="rgb(197,111,136)" fill-opacity="0.5019607843137255"></ellipse></g>,<circle cx="72" cy="200" r="41" fill="rgb(0,0,0)" fill-opacity="0.5019607843137255"></circle>,<ellipse cx="437" cy="254" rx="6" ry="10" fill="rgb(255,191,88)" fill-opacity="0.5019607843137255"></ellipse>,<g transform="translate(330 290) rotate(185) scale(25 39)"><ellipse cx="0" cy="0" rx="1" ry="1" fill="rgb(0,79,98)" fill-opacity="0.5019607843137255"></ellipse></g>,<polygon points="308,163 321,121 347,167" fill="rgb(255,224,255)" fill-opacity="0.5019607843137255"></polygon>,<ellipse cx="36" cy="158" rx="134" ry="3" fill="rgb(229,203,252)" fill-opacity="0.5019607843137255"></ellipse>,<g transform="translate(125 188) rotate(336) scale(44 26)"><ellipse cx="0" cy="0" rx="1" ry="1" fill="rgb(9,12,24)" fill-opacity="0.5019607843137255"></ellipse></g>,<polygon points="113,141 225,156 128,123" fill="rgb(5,3,10)" fill-opacity="0.5019607843137255"></polygon>,<g transform="translate(7 213) rotate(352) scale(62 5)"><ellipse cx="0" cy="0" rx="1" ry="1" fill="rgb(20,26,0)" fill-opacity="0.5019607843137255"></ellipse></g>,<circle cx="55" cy="70" r="57" fill="rgb(0,0,0)" fill-opacity="0.5019607843137255"></circle>,<rect x="179" y="157" width="124" height="17" fill="rgb(108,83,131)" fill-opacity="0.5019607843137255"></rect>,<ellipse cx="295" cy="280" rx="20" ry="31" fill="rgb(66,0,108)" fill-opacity="0.5019607843137255"></ellipse>,<circle cx="11" cy="253" r="21" fill="rgb(255,7,255)" fill-opacity="0.5019607843137255"></circle>,<polygon points="385 324 389 268 435 271 431 327" fill="rgb(88,35,90)" fill-opacity="0.5019607843137255"></polygon>,<g transform="translate(224 291) rotate(303) scale(21 19)"><ellipse cx="0" cy="0" rx="1" ry="1" fill="rgb(117,128,117)" fill-opacity="0.5019607843137255"></ellipse></g>,<circle cx="325" cy="279" r="20" fill="rgb(0,76,118)" fill-opacity="0.5019607843137255"></circle>,<circle cx="471" cy="230" r="29" fill="rgb(3,0,0)" fill-opacity="0.5019607843137255"></circle>,<g transform="translate(189 93) rotate(243) scale(36 34)"><ellipse cx="0" cy="0" rx="1" ry="1" fill="rgb(65,73,141)" fill-opacity="0.5019607843137255"></ellipse></g>,<circle cx="266" cy="280" r="23" fill="rgb(96,55,49)" fill-opacity="0.5019607843137255"></circle>,<ellipse cx="229" cy="242" rx="26" ry="15" fill="rgb(255,255,255)" fill-opacity="0.5019607843137255"></ellipse>,<rect x="269" y="158" width="4" height="48" fill="rgb(187,230,191)" fill-opacity="0.5019607843137255"></rect>,<ellipse cx="440" cy="175" rx="30" ry="3" fill="rgb(187,140,255)" fill-opacity="0.5019607843137255"></ellipse>,<ellipse cx="27" cy="347" rx="37" ry="41" fill="rgb(37,0,66)" fill-opacity="0.5019607843137255"></ellipse>,<rect x="437" y="257" width="42" height="59" fill="rgb(0,255,255)" fill-opacity="0.5019607843137255"></rect>,<g transform="translate(351 152) rotate(3) scale(10 13)"><ellipse cx="0" cy="0" rx="1" ry="1" fill="rgb(0,0,0)" fill-opacity="0.5019607843137255"></ellipse></g>,<g transform="translate(437 140) rotate(259) scale(34 31)"><ellipse cx="0" cy="0" rx="1" ry="1" fill="rgb(2,0,9)" fill-opacity="0.5019607843137255"></ellipse></g>,<circle cx="30" cy="135" r="10" fill="rgb(194,85,255)" fill-opacity="0.5019607843137255"></circle>,<ellipse cx="121" cy="289" rx="24" ry="40" fill="rgb(0,71,87)" fill-opacity="0.5019607843137255"></ellipse>,<circle cx="310" cy="198" r="34" fill="rgb(29,23,45)" fill-opacity="0.5019607843137255"></circle>,<g transform="translate(88 294) rotate(353) scale(18 29)"><ellipse cx="0" cy="0" rx="1" ry="1" fill="rgb(78,73,37)" fill-opacity="0.5019607843137255"></ellipse></g>,<g transform="translate(190 35) rotate(86) scale(22 63)"><ellipse cx="0" cy="0" rx="1" ry="1" fill="rgb(0,0,0)" fill-opacity="0.5019607843137255"></ellipse></g>,<polygon points="393 276 384 330 344 323 353 269" fill="rgb(80,85,33)" fill-opacity="0.5019607843137255"></polygon>,<polygon points="310 140 294 160 270 141 286 120" fill="rgb(0,0,0)" fill-opacity="0.5019607843137255"></polygon>,<polygon points="347 10 348 34 302 35 301 11" fill="rgb(72,71,43)" fill-opacity="0.5019607843137255"></polygon>,<polygon points="216 198 220 173 236 176 233 201" fill="rgb(255,255,255)" fill-opacity="0.5019607843137255"></polygon>,<ellipse cx="143" cy="270" rx="14" ry="32" fill="rgb(28,19,112)" fill-opacity="0.5019607843137255"></ellipse>,<polygon points="390 10 390 33 345 33 345 11" fill="rgb(72,70,45)" fill-opacity="0.5019607843137255"></polygon>,<ellipse cx="46" cy="187" rx="43" ry="25" fill="rgb(5,0,13)" fill-opacity="0.5019607843137255"></ellipse>,<g transform="translate(30 141) rotate(197) scale(6 20)"><ellipse cx="0" cy="0" rx="1" ry="1" fill="rgb(203,80,246)" fill-opacity="0.5019607843137255"></ellipse></g>,<polygon points="239 124 227 133 219 121 231 113" fill="rgb(207,98,122)" fill-opacity="0.5019607843137255"></polygon>,<polygon points="33 139 56 118 73 136 49 158" fill="rgb(0,0,6)" fill-opacity="0.5019607843137255"></polygon>,<ellipse cx="180" cy="276" rx="20" ry="18" fill="rgb(117,67,86)" fill-opacity="0.5019607843137255"></ellipse>,<g transform="translate(19 242) rotate(240) scale(17 18)"><ellipse cx="0" cy="0" rx="1" ry="1" fill="rgb(255,14,255)" fill-opacity="0.5019607843137255"></ellipse></g>,<g transform="translate(371 148) rotate(219) scale(8 22)"><ellipse cx="0" cy="0" rx="1" ry="1" fill="rgb(0,0,0)" fill-opacity="0.5019607843137255"></ellipse></g>,<ellipse cx="35" cy="279" rx="8" ry="30" fill="rgb(5,0,16)" fill-opacity="0.5019607843137255"></ellipse>,<circle cx="476" cy="352" r="33" fill="rgb(0,157,114)" fill-opacity="0.5019607843137255"></circle>,<polygon points="477 164 486 167 471 222 462 219" fill="rgb(0,0,0)" fill-opacity="0.5019607843137255"></polygon>,<rect x="345" y="166" width="70" height="6" fill="rgb(234,218,197)" fill-opacity="0.5019607843137255"></rect>,<rect x="119" y="93" width="79" height="19" fill="rgb(90,98,166)" fill-opacity="0.5019607843137255"></rect>,<circle cx="447" cy="214" r="5" fill="rgb(235,228,141)" fill-opacity="0.5019607843137255"></circle>,<ellipse cx="112" cy="3" rx="41" ry="11" fill="rgb(79,78,51)" fill-opacity="0.5019607843137255"></ellipse>,<rect x="463" y="176" width="8" height="17" fill="rgb(93,234,234)" fill-opacity="0.5019607843137255"></rect>,<polygon points="249 60 276 32 302 57 275 85" fill="rgb(0,0,0)" fill-opacity="0.5019607843137255"></polygon>,<g transform="translate(197 242) rotate(0) scale(4 12)"><ellipse cx="0" cy="0" rx="1" ry="1" fill="rgb(250,255,255)" fill-opacity="0.5019607843137255"></ellipse></g>,<circle cx="260" cy="117" r="13" fill="rgb(96,95,124)" fill-opacity="0.5019607843137255"></circle>,<circle cx="461" cy="289" r="27" fill="rgb(0,255,255)" fill-opacity="0.5019607843137255"></circle>,<circle cx="447" cy="106" r="60" fill="rgb(0,1,2)" fill-opacity="0.5019607843137255"></circle>,<g transform="translate(161 235) rotate(223) scale(15 16)"><ellipse cx="0" cy="0" rx="1" ry="1" fill="rgb(16,9,7)" fill-opacity="0.5019607843137255"></ellipse></g>,<polygon points="197 256 197 231 248 231 248 256" fill="rgb(255,255,255)" fill-opacity="0.5019607843137255"></polygon>,<polygon points="432,236 479,169 453,200" fill="rgb(255,255,248)" fill-opacity="0.5019607843137255"></polygon>,<ellipse cx="476" cy="6" rx="18" ry="12" fill="rgb(0,0,24)" fill-opacity="0.5019607843137255"></ellipse>,<polygon points="231 142 234 129 267 138 263 151" fill="rgb(2,5,16)" fill-opacity="0.5019607843137255"></polygon>,<g transform="translate(140 7) rotate(54) scale(20 31)"><ellipse cx="0" cy="0" rx="1" ry="1" fill="rgb(35,35,41)" fill-opacity="0.5019607843137255"></ellipse></g>,<polygon points="220 219 225 199 272 211 266 231" fill="rgb(59,72,99)" fill-opacity="0.5019607843137255"></polygon>,<g transform="translate(376 250) rotate(292) scale(21 57)"><ellipse cx="0" cy="0" rx="1" ry="1" fill="rgb(28,29,46)" fill-opacity="0.5019607843137255"></ellipse></g>,<polygon points="460 271 450 280 435 262 445 253" fill="rgb(6,255,208)" fill-opacity="0.5019607843137255"></polygon>,<g transform="translate(260 186) rotate(79) scale(31 7)"><ellipse cx="0" cy="0" rx="1" ry="1" fill="rgb(39,53,81)" fill-opacity="0.5019607843137255"></ellipse></g>,<rect x="140" y="118" width="58" height="16" fill="rgb(127,132,197)" fill-opacity="0.5019607843137255"></rect>,<rect x="387" y="134" width="11" height="19" fill="rgb(139,87,143)" fill-opacity="0.5019607843137255"></rect>,<circle cx="117" cy="130" r="6" fill="rgb(252,146,196)" fill-opacity="0.5019607843137255"></circle>,<circle cx="154" cy="306" r="14" fill="rgb(3,0,10)" fill-opacity="0.5019607843137255"></circle>]</svg>